<svg width="24" height="24" viewBox="0 0 24 24" fill="none" xmlns="http://www.w3.org/2000/svg">
<path fill-rule="evenodd" clip-rule="evenodd" d="M6.00002 2.39999H18C19.9883 2.39999 21.6 4.01177 21.6 5.99999V18C21.6 19.9882 19.9883 21.6 18 21.6H6.00002C4.0118 21.6 2.40002 19.9882 2.40002 18V5.99999C2.40002 4.01177 4.0118 2.39999 6.00002 2.39999Z" fill="#3DD598"/>
<path d="M8.83214 11.1361C8.36049 10.6705 7.6007 10.6754 7.13512 11.1471C6.66953 11.6187 6.67445 12.3785 7.14611 12.8441L10.1953 15.854C10.6969 16.3492 11.5152 16.3074 11.9639 15.7637L16.9147 9.76374C17.3365 9.25256 17.264 8.49622 16.7529 8.07442C16.2417 7.65262 15.4853 7.72508 15.0635 8.23627L10.9476 13.2244L8.83214 11.1361Z" fill="white"/>
</svg>
